<?xml version="1.0" encoding="UTF-8" standalone="no"?>
<svg
   xmlns:dc="http://purl.org/dc/elements/1.1/"
   xmlns:cc="http://creativecommons.org/ns#"
   xmlns:rdf="http://www.w3.org/1999/02/22-rdf-syntax-ns#"
   xmlns:svg="http://www.w3.org/2000/svg"
   xmlns="http://www.w3.org/2000/svg"
   style="shape-rendering:crispEdges"
   id="svg8"
   version="1.1"
   viewBox="-8 -8 16 16"
   height="16"
   width="16">
  <defs
     id="defs2" />
  <metadata
     id="metadata5">
    <rdf:RDF>
      <cc:Work
         rdf:about="">
        <dc:format>image/svg+xml</dc:format>
        <dc:type
           rdf:resource="http://purl.org/dc/dcmitype/StillImage" />
        <dc:title></dc:title>
      </cc:Work>
    </rdf:RDF>
  </metadata>
  <g
     style="display:inline"
     id="layer2">
    <g
       style="display:none"
       transform="translate(-8,-8)"
       id="spacecraft1">
      <path
         id="rect5698-3-4"
         style="display:inline;opacity:1;fill:#aaccff;fill-opacity:1;fill-rule:evenodd;stroke:none;stroke-width:3.77952766;stroke-linecap:butt;stroke-miterlimit:4;stroke-dasharray:none;stroke-opacity:1;shape-rendering:crispEdges"
         d="M 7,5 H 8 V 6 H 7 Z M 7,4 H 8 V 5 H 7 Z M 8,4 H 9 V 5 H 8 Z M 8,5 H 9 V 6 H 8 Z m 1,0 h 1 V 6 H 9 Z M 9,4 h 1 V 5 H 9 Z M 9,3 h 1 V 4 H 9 Z M 8,3 H 9 V 4 H 8 Z M 8,2 H 9 V 3 H 8 Z M 7,2 H 8 V 3 H 7 Z M 7,3 H 8 V 4 H 7 Z M 6,3 H 7 V 4 H 6 Z M 6,4 H 7 V 5 H 6 Z M 6,5 H 7 V 6 H 6 Z" />
      <path
         id="rect5698-3-2-4"
         style="display:inline;opacity:1;fill:#2b0000;fill-opacity:1;fill-rule:evenodd;stroke:none;stroke-width:3.77952766;stroke-linecap:butt;stroke-miterlimit:4;stroke-dasharray:none;stroke-opacity:1;shape-rendering:crispEdges"
         d="m 10,7 h 1 V 8 H 10 Z M 9,7 h 1 V 8 H 9 Z M 6,7 H 7 V 8 H 6 Z M 5,7 H 6 V 8 H 5 Z" />
      <path
         id="rect6148-48"
         style="display:inline;opacity:1;fill:#000080;fill-opacity:1;fill-rule:evenodd;stroke:none;stroke-width:3.77952766;stroke-linecap:butt;stroke-miterlimit:4;stroke-dasharray:none;stroke-opacity:1;shape-rendering:crispEdges"
         d="m 14,6 h 1 v 1 h -1 z m 0,-1 h 1 v 1 h -1 z m 1,0 h 1 v 1 h -1 z m 0,1 h 1 v 1 h -1 z m 0,-2 h 1 v 1 h -1 z m 0,-1 h 1 v 1 h -1 z m 0,-1 h 1 v 1 h -1 z m 0,-1 h 1 v 1 h -1 z m -2,1 h 1 v 1 h -1 z m 0,1 h 1 v 1 h -1 z m 0,1 h 1 v 1 h -1 z m 0,1 h 1 v 1 h -1 z m 0,1 h 1 v 1 h -1 z m 0,1 h 1 V 8 H 13 Z M 12,6 h 1 v 1 h -1 z m 0,-1 h 1 v 1 h -1 z m 0,-1 h 1 V 5 H 12 Z M 3,6 H 4 V 7 H 3 Z M 3,5 H 4 V 6 H 3 Z M 3,4 H 4 V 5 H 3 Z M 2,2 H 3 V 3 H 2 Z M 2,3 H 3 V 4 H 2 Z M 2,4 H 3 V 5 H 2 Z M 2,5 H 3 V 6 H 2 Z M 2,6 H 3 V 7 H 2 Z M 2,7 H 3 V 8 H 2 Z M 1,6 H 2 V 7 H 1 Z M 1,5 H 2 V 6 H 1 Z M 0,6 H 1 V 7 H 0 Z M 0,5 H 1 V 6 H 0 Z M 0,4 H 1 V 5 H 0 Z M 0,3 H 1 V 4 H 0 Z M 0,2 H 1 V 3 H 0 Z M 0,1 H 1 V 2 H 0 Z" />
      <g
         id="g6487">
        <path
           d="M 4,7 H 5 V 8 H 4 Z M 4,6 H 5 V 7 H 4 Z M 4,5 H 5 V 6 H 4 Z M 4,4 H 5 V 5 H 4 Z M 4,3 H 5 V 4 H 4 Z M 5,3 H 6 V 4 H 5 Z M 5,2 H 6 V 3 H 5 Z M 6,2 H 7 V 3 H 6 Z M 6,1 H 7 V 2 H 6 Z M 7,1 H 8 V 2 H 7 Z M 7,0 H 8 V 1 H 7 Z M 8,0 H 9 V 1 H 8 Z M 8,1 H 9 V 2 H 8 Z m 1,0 h 1 V 2 H 9 Z m 0,1 h 1 V 3 H 9 Z m 1,0 h 1 v 1 h -1 z m 0,1 h 1 v 1 h -1 z m 1,0 h 1 v 1 h -1 z m 0,1 h 1 v 1 h -1 z m -1,0 h 1 v 1 h -1 z m 0,1 h 1 v 1 h -1 z m 1,0 h 1 v 1 h -1 z m 0,2 h 1 v 1 h -1 z m 0,-1 h 1 v 1 h -1 z m -1,0 h 1 V 7 H 10 Z M 9,6 h 1 V 7 H 9 Z M 8,6 H 9 V 7 H 8 Z M 7,6 H 8 V 7 H 7 Z M 6,6 H 7 V 7 H 6 Z M 5,6 H 6 V 7 H 5 Z M 5,5 H 6 V 6 H 5 Z M 5,4 H 6 V 5 H 5 Z"
           style="display:inline;opacity:1;fill:#800000;fill-opacity:1;fill-rule:evenodd;stroke:none;stroke-width:3.77952766;stroke-linecap:butt;stroke-miterlimit:4;stroke-dasharray:none;stroke-opacity:1;shape-rendering:crispEdges"
           id="rect5698-3-361" />
        <path
           d="M 4,7 H 5 V 8 H 4 Z M 4,6 H 5 V 7 H 4 Z M 4,5 H 5 V 6 H 4 Z M 4,4 H 5 V 5 H 4 Z M 4,3 H 5 V 4 H 4 Z m 7,4 h 1 v 1 h -1 z m 0,-1 h 1 v 1 h -1 z m 0,-1 h 1 v 1 h -1 z m 0,-1 h 1 v 1 h -1 z m 0,-1 h 1 v 1 h -1 z"
           style="display:inline;opacity:1;fill:#550000;fill-opacity:1;fill-rule:evenodd;stroke:none;stroke-width:3.77952766;stroke-linecap:butt;stroke-miterlimit:4;stroke-dasharray:none;stroke-opacity:1;shape-rendering:crispEdges"
           id="rect6148-96" />
      </g>
      <path
         id="rect6148-9"
         style="display:inline;opacity:1;fill:#6f97d0;fill-opacity:1;fill-rule:evenodd;stroke:none;stroke-width:3.77952766;stroke-linecap:butt;stroke-miterlimit:4;stroke-dasharray:none;stroke-opacity:1;shape-rendering:crispEdges"
         d="M 8,2 H 9 V 3 H 8 Z M 7,2 H 8 V 3 H 7 Z M 6,3 H 7 V 4 H 6 Z M 6,4 H 7 V 5 H 6 Z M 6,5 H 7 V 6 H 6 Z m 3,0 h 1 V 6 H 9 Z M 9,4 h 1 V 5 H 9 Z M 9,3 h 1 V 4 H 9 Z" />
      <path
         id="rect6148-6"
         style="display:inline;opacity:1;fill:#0c0c3b;fill-opacity:1;fill-rule:evenodd;stroke:none;stroke-width:3.77952766;stroke-linecap:butt;stroke-miterlimit:4;stroke-dasharray:none;stroke-opacity:1;shape-rendering:crispEdges"
         d="M 3,6 H 4 V 7 H 3 Z M 3,5 H 4 V 6 H 3 Z M 3,4 H 4 V 5 H 3 Z m 9,2 h 1 v 1 h -1 z m 0,-1 h 1 v 1 h -1 z m 0,-1 h 1 v 1 h -1 z m 2,2 h 1 v 1 h -1 z m 0,-1 h 1 V 6 H 14 Z M 1,6 H 2 V 7 H 1 Z M 1,5 H 2 V 6 H 1 Z" />
    </g>
    <g
       transform="translate(-8,-8)"
       style="display:none"
       id="left">
      <path
         id="rect7451-8"
         style="display:inline;opacity:1;fill:#ffff00;fill-opacity:1;fill-rule:evenodd;stroke:none;stroke-width:3.77952766;stroke-linecap:butt;stroke-miterlimit:4;stroke-dasharray:none;stroke-opacity:1;shape-rendering:crispEdges"
         d="m 9,13 h 1 v 1 H 9 Z m 0,-1 h 1 v 1 H 9 Z m 0,-1 h 1 v 1 H 9 Z m 1,0 h 1 v 1 h -1 z m 0,-1 h 1 v 1 h -1 z m -1,0 h 1 v 1 H 9 Z M 9,9 h 1 v 1 H 9 Z m 1,0 h 1 v 1 h -1 z m 0,-1 h 1 V 9 H 10 Z M 9,8 h 1 V 9 H 9 Z" />
      <path
         id="rect7451-3"
         style="display:inline;opacity:1;fill:#ff0000;fill-opacity:1;fill-rule:evenodd;stroke:none;stroke-width:3.77952766;stroke-linecap:butt;stroke-miterlimit:4;stroke-dasharray:none;stroke-opacity:1;shape-rendering:crispEdges"
         d="m 11,9 h 1 v 1 h -1 z m 0,1 h 1 v 1 h -1 z m 0,1 h 1 v 1 h -1 z m -1,1 h 1 v 1 h -1 z m 0,1 h 1 v 1 h -1 z m -1,1 h 1 v 1 H 9 Z M 8,13 h 1 v 1 H 8 Z m 0,-1 h 1 v 1 H 8 Z m 0,-1 h 1 v 1 H 8 Z m 0,-1 h 1 v 1 H 8 Z M 8,9 h 1 v 1 H 8 Z" />
    </g>
    <g
       transform="translate(-8,-8)"
       style="display:none"
       id="right">
      <path
         id="rect7451-8-1"
         style="display:inline;opacity:1;fill:#ffff00;fill-opacity:1;fill-rule:evenodd;stroke:none;stroke-width:3.77952766;stroke-linecap:butt;stroke-miterlimit:4;stroke-dasharray:none;stroke-opacity:1;shape-rendering:crispEdges"
         d="M 7,13 H 6 v 1 H 7 Z M 7,12 H 6 v 1 H 7 Z M 7,11 H 6 v 1 H 7 Z M 6,11 H 5 v 1 H 6 Z M 6,10 H 5 v 1 h 1 z m 1,0 H 6 v 1 H 7 Z M 7,9 H 6 v 1 H 7 Z M 6,9 H 5 v 1 H 6 Z M 6,8 H 5 V 9 H 6 Z M 7,8 H 6 v 1 h 1 z" />
      <path
         id="rect7451-3-5"
         style="display:inline;opacity:1;fill:#ff0000;fill-opacity:1;fill-rule:evenodd;stroke:none;stroke-width:3.77952766;stroke-linecap:butt;stroke-miterlimit:4;stroke-dasharray:none;stroke-opacity:1;shape-rendering:crispEdges"
         d="M 5,9 H 4 v 1 h 1 z m 0,1 H 4 v 1 h 1 z m 0,1 H 4 v 1 h 1 z m 1,1 H 5 v 1 h 1 z m 0,1 H 5 v 1 h 1 z m 1,1 H 6 v 1 H 7 Z M 8,13 H 7 v 1 H 8 Z M 8,12 H 7 v 1 H 8 Z M 8,11 H 7 v 1 H 8 Z M 8,10 H 7 v 1 H 8 Z M 8,9 H 7 v 1 h 1 z" />
    </g>
    <g
       style="display:inline"
       transform="translate(-20,-12)"
       id="forward">
      <path
         id="rect6780-88"
         style="opacity:1;fill:#ffff00;fill-opacity:1;fill-rule:evenodd;stroke:none;stroke-width:3.77952766;stroke-linecap:butt;stroke-miterlimit:4;stroke-dasharray:none;stroke-opacity:1;shape-rendering:crispEdges"
         d="m 22,12 h 1 v 1 h -1 z m 0,1 h 1 v 1 h -1 z m 0,1 h 1 v 1 h -1 z m 0,1 h 1 v 1 h -1 z m -1,2 h 1 v 1 h -1 z m 0,-1 h 1 v 1 h -1 z m 0,-1 h 1 v 1 h -1 z m 0,-1 h 1 v 1 h -1 z m 0,-1 h 1 v 1 h -1 z m 0,-1 h 1 v 1 h -1 z m -1,1 h 1 v 1 h -1 z m -1,0 h 1 v 1 h -1 z m 0,1 h 1 v 1 h -1 z m -1,3 h 1 v 1 h -1 z m 0,-1 h 1 v 1 h -1 z m 0,-1 h 1 v 1 h -1 z m -1,0 h 1 v 1 h -1 z m 1,-1 h 1 v 1 h -1 z m -1,0 h 1 v 1 h -1 z m 0,-1 h 1 v 1 h -1 z m 1,0 h 1 v 1 h -1 z m 0,-1 h 1 v 1 h -1 z m -1,0 h 1 v 1 h -1 z m 3,2 h 1 v 1 h -1 z" />
      <path
         id="rect6780-380"
         style="opacity:1;fill:#ff0000;fill-opacity:1;fill-rule:evenodd;stroke:none;stroke-width:3.77952766;stroke-linecap:butt;stroke-miterlimit:4;stroke-dasharray:none;stroke-opacity:1;shape-rendering:crispEdges"
         d="m 16,13 h 1 v 1 h -1 z m 0,1 h 1 v 1 h -1 z m 0,1 h 1 v 1 h -1 z m 1,1 h 1 v 1 h -1 z m 0,1 h 1 v 1 h -1 z m 1,1 h 1 v 1 h -1 z m 0,1 h 1 v 1 h -1 z m 3,0 h 1 v 1 h -1 z m 0,-1 h 1 v 1 h -1 z m -2,-2 h 1 v 1 h -1 z m 0,-1 h 1 v 1 h -1 z m 1,0 h 1 v 1 h -1 z m 0,1 h 1 v 1 h -1 z m 2,1 h 1 v 1 h -1 z m 0,-1 h 1 v 1 h -1 z m 1,-1 h 1 v 1 h -1 z m 0,-1 h 1 v 1 h -1 z m 0,-1 h 1 v 1 h -1 z" />
    </g>
  </g>
</svg>
